<?xml version="1.0" standalone="no"?>
<!DOCTYPE svg PUBLIC "-//W3C//DTD SVG 20010904//EN"
 "http://www.w3.org/TR/2001/REC-SVG-20010904/DTD/svg10.dtd">
<svg version="1.0" xmlns="http://www.w3.org/2000/svg"
 width="300.000000pt" height="300.000000pt" viewBox="0 0 300.000000 300.000000"
 preserveAspectRatio="xMidYMid meet">

<g transform="translate(0.000000,300.000000) scale(0.100000,-0.100000)"
fill="#000000" stroke="none">
<path d="M1273 2813 c-18 -2 -33 -9 -33 -15 0 -13 99 -3 114 12 10 10 -14 11
-81 3z"/>
<path d="M1527 2809 c6 -6 36 -14 65 -17 72 -6 52 14 -22 23 -43 5 -52 4 -43
-6z"/>
<path d="M1165 2795 c-5 -2 -44 -13 -85 -26 -41 -12 -82 -26 -90 -30 -8 -4
-40 -17 -70 -29 -91 -37 -268 -162 -356 -252 -103 -105 -224 -280 -224 -325 0
-9 69 100 70 110 0 4 4 13 10 20 214 265 354 373 600 463 116 43 153 54 178
54 11 0 24 5 27 10 6 9 -37 13 -60 5z"/>
<path d="M1650 2791 c0 -6 12 -11 26 -11 83 0 354 -118 474 -205 155 -115 304
-292 379 -451 23 -49 46 -97 51 -106 6 -10 10 -27 10 -37 0 -11 4 -22 9 -25 5
-4 6 8 1 27 -29 119 -127 293 -244 432 -47 58 -204 188 -256 215 -21 11 -54
30 -73 43 -87 59 -377 150 -377 118z"/>
<path d="M1318 2404 c-5 -4 -8 -190 -8 -414 0 -302 3 -409 12 -418 8 -8 52
-12 133 -12 67 0 125 -3 128 -6 4 -4 -13 -43 -37 -88 -24 -45 -76 -145 -116
-223 -40 -79 -76 -143 -79 -143 -8 0 -17 14 -91 155 -35 66 -83 156 -107 200
-23 44 -59 113 -80 153 -36 68 -60 91 -83 77 -6 -4 -10 -155 -10 -426 l0 -420
23 3 22 3 3 375 3 375 30 -55 c17 -30 55 -102 86 -160 31 -58 75 -139 97 -180
23 -41 52 -96 66 -122 14 -27 32 -48 40 -48 9 0 31 31 53 73 162 314 236 452
246 455 8 3 12 -101 13 -355 l3 -358 23 -3 22 -3 0 360 0 361 23 0 c58 1 144
65 166 123 19 48 14 187 -8 227 -16 32 -63 72 -94 83 -7 2 -2 15 15 36 34 40
48 89 48 171 0 89 -29 146 -90 179 -42 24 -55 25 -245 29 -110 2 -203 1 -207
-4z m431 -59 c47 -28 71 -77 71 -145 0 -80 -16 -124 -56 -159 l-35 -31 -189 0
-190 0 0 173 c0 96 3 177 7 181 5 4 87 6 183 4 153 -3 179 -5 209 -23z m46
-395 c53 -27 75 -73 75 -157 0 -99 -28 -149 -99 -179 -52 -22 -60 -19 -63 28
-2 30 -8 44 -20 46 -18 3 -30 -8 -59 -56 l-19 -33 -128 3 -127 3 -3 170 c-1
93 0 175 3 183 8 20 398 13 440 -8z"/>
<path d="M308 2077 c-28 -54 -48 -108 -48 -131 0 -12 -4 -26 -9 -31 -8 -9 -31
-102 -31 -125 0 -6 5 -10 10 -10 6 0 10 18 10 39 0 22 4 42 9 45 5 3 12 27 16
52 4 26 10 54 15 63 18 34 51 123 48 127 -2 2 -11 -11 -20 -29z"/>
<path d="M2606 1932 c-3 -6 -2 -13 4 -17 5 -3 10 -19 10 -35 0 -16 4 -31 9
-35 6 -3 7 10 4 32 -7 48 -18 69 -27 55z"/>
<path d="M2636 1822 c-8 -13 4 -71 16 -78 5 -3 6 13 2 38 -8 49 -10 53 -18 40z"/>
<path d="M2651 1631 c-1 -24 2 -32 9 -25 7 7 7 19 1 35 -9 23 -10 22 -10 -10z"/>
<path d="M2650 1527 c0 -23 4 -36 10 -32 13 8 13 35 0 55 -7 11 -10 5 -10 -23z"/>
<path d="M220 1407 c0 -35 48 -219 60 -231 5 -5 10 -17 10 -26 0 -24 78 -175
134 -260 132 -200 390 -396 618 -469 99 -31 188 -51 232 -51 49 0 43 8 -10 14
-295 36 -594 211 -785 461 -73 96 -159 241 -159 269 0 9 -4 16 -9 16 -5 0 -12
18 -16 40 -4 22 -11 42 -16 45 -4 3 -11 28 -15 56 -4 27 -11 52 -15 55 -5 3
-9 25 -9 49 0 24 -4 47 -10 50 -6 3 -10 -4 -10 -18z"/>
<path d="M2640 1385 c-6 -17 -7 -32 -2 -37 6 -6 12 4 16 23 8 42 0 50 -14 14z"/>
<path d="M2626 1319 c-2 -8 -7 -25 -10 -39 -9 -44 -30 -115 -36 -120 -3 -3
-16 -29 -29 -58 -48 -114 -172 -301 -214 -324 -12 -6 -28 -20 -36 -31 -11 -15
-15 -16 -22 -6 -4 8 -4 16 1 19 5 3 12 18 15 33 6 23 4 27 -14 27 -14 0 -21
-6 -21 -18 0 -11 -9 -27 -20 -37 -11 -10 -19 -23 -18 -29 4 -21 -36 -68 -81
-97 l-46 -29 34 7 c50 9 34 -8 -64 -67 -59 -36 -91 -49 -105 -45 -12 4 -20 2
-20 -4 0 -14 -61 -52 -72 -45 -4 3 -18 -2 -31 -11 -29 -19 -43 -8 -18 14 94
83 112 101 103 101 -18 0 -91 -54 -92 -67 0 -14 -35 -35 -43 -26 -4 3 -9 -2
-13 -11 -3 -9 -15 -16 -26 -16 -15 0 -18 5 -13 23 5 17 4 19 -4 7 -6 -8 -8
-24 -5 -34 5 -15 3 -18 -10 -13 -9 4 -16 2 -16 -3 0 -15 -61 -29 -150 -35
-128 -9 -124 -25 5 -23 112 2 164 -11 179 -44 3 -7 3 0 0 17 -3 16 -11 33 -17
37 -8 5 -4 8 8 8 11 0 31 -7 43 -16 16 -11 27 -12 39 -5 15 9 14 10 -10 11
-17 0 -27 5 -25 12 4 10 80 45 143 65 38 12 167 84 227 126 116 81 108 78 140
61 19 -10 28 -11 28 -3 0 6 -9 13 -20 16 -24 6 -24 12 -5 37 12 16 19 18 39 8
24 -11 25 -10 21 20 -3 25 4 40 34 74 71 81 145 201 194 314 35 83 72 218 63
228 -3 3 -8 -1 -10 -9z"/>
<path d="M2770 1089 c-7 -12 -18 -18 -26 -15 -9 4 -14 -2 -14 -15 0 -16 -5
-20 -20 -16 -11 3 -20 1 -20 -4 0 -5 5 -9 10 -9 6 0 10 -8 10 -17 1 -13 15 -2
45 32 25 28 45 53 45 58 0 15 -20 6 -30 -14z"/>
<path d="M2390 1050 c0 -5 5 -10 10 -10 6 0 10 5 10 10 0 6 -4 10 -10 10 -5 0
-10 -4 -10 -10z"/>
<path d="M2595 1029 c-11 -16 -1 -19 13 -3 7 8 8 14 3 14 -5 0 -13 -5 -16 -11z"/>
<path d="M2401 1014 c0 -11 3 -14 6 -6 3 7 2 16 -1 19 -3 4 -6 -2 -5 -13z"/>
<path d="M2657 980 c-14 -21 -16 -21 -26 -3 -10 17 -11 17 -17 -4 -3 -13 -13
-23 -20 -23 -8 0 -15 -8 -15 -17 -1 -10 -5 -2 -9 17 -6 29 -8 30 -9 10 0 -15
-5 -30 -10 -35 -5 -6 -12 -20 -16 -32 -6 -22 -5 -22 22 -8 37 20 86 39 96 36
5 -1 6 3 2 9 -4 6 4 19 17 30 17 14 20 21 12 30 -9 9 -15 6 -27 -10z"/>
<path d="M2332 958 c-7 -7 -12 -22 -12 -35 0 -13 -5 -32 -12 -42 -6 -11 -8
-26 -3 -37 6 -15 10 -10 20 26 7 25 18 57 24 73 11 28 3 35 -17 15z"/>
<path d="M2371 934 c0 -11 3 -14 6 -6 3 7 2 16 -1 19 -3 4 -6 -2 -5 -13z"/>
<path d="M2231 884 c0 -11 3 -14 6 -6 3 7 2 16 -1 19 -3 4 -6 -2 -5 -13z"/>
<path d="M2342 840 c0 -14 2 -19 5 -12 2 6 2 18 0 25 -3 6 -5 1 -5 -13z"/>
<path d="M2458 801 c-41 -38 -35 -47 27 -47 30 1 55 5 55 9 0 5 5 5 11 1 6 -3
15 0 20 7 8 12 11 11 20 -3 10 -18 30 -25 28 -10 -3 20 4 21 37 7 41 -17 56
-19 34 -5 -8 5 -11 12 -7 17 11 10 28 -18 22 -35 -3 -7 -1 -11 4 -7 5 3 11 -1
14 -7 3 -10 10 -10 31 2 18 9 30 11 34 4 4 -6 16 -13 27 -16 11 -3 29 -9 40
-14 18 -7 18 -6 5 7 -46 46 -221 97 -280 82 -19 -5 -79 13 -90 28 -3 3 -17 -6
-32 -20z"/>
<path d="M2768 783 c7 -3 16 -2 19 1 4 3 -2 6 -13 5 -11 0 -14 -3 -6 -6z"/>
<path d="M2337 621 c-16 -6 -16 -9 -5 -18 26 -21 78 -43 100 -42 18 0 14 4
-17 17 -54 23 -66 32 -60 43 7 10 7 10 -18 0z"/>
<path d="M1980 613 c14 -3 29 -10 33 -17 6 -7 7 -6 4 4 -2 8 -16 16 -33 17
-25 1 -26 0 -4 -4z"/>
<path d="M2060 590 c-8 -5 -10 -10 -5 -10 6 0 17 5 25 10 8 5 11 10 5 10 -5 0
-17 -5 -25 -10z"/>
<path d="M2015 560 c-3 -6 1 -7 9 -4 18 7 21 14 7 14 -6 0 -13 -4 -16 -10z"/>
<path d="M1782 544 c-7 -8 -8 -14 -3 -14 10 0 25 19 20 25 -2 1 -10 -3 -17
-11z"/>
<path d="M1970 525 c-7 -8 -9 -15 -6 -15 4 0 14 7 22 15 9 8 11 15 6 15 -5 0
-15 -7 -22 -15z"/>
<path d="M2278 533 c6 -2 18 -2 25 0 6 3 1 5 -13 5 -14 0 -19 -2 -12 -5z"/>
<path d="M2158 503 c7 -3 16 -2 19 1 4 3 -2 6 -13 5 -11 0 -14 -3 -6 -6z"/>
<path d="M2320 470 c0 -5 4 -10 9 -10 6 0 13 5 16 10 3 6 -1 10 -9 10 -9 0
-16 -4 -16 -10z"/>
<path d="M2258 456 c-10 -7 -15 -15 -12 -18 7 -8 64 14 64 24 0 13 -33 9 -52
-6z"/>
<path d="M2051 429 c-13 -11 -22 -21 -20 -23 2 -2 36 -6 74 -9 39 -3 64 -4 57
-1 -22 10 -2 24 34 24 29 0 33 2 22 14 -9 9 -21 11 -39 6 -16 -5 -31 -4 -38 3
-7 7 -16 5 -31 -8 -18 -16 -20 -17 -14 -2 9 23 -15 21 -45 -4z"/>
<path d="M1988 393 c7 -3 16 -2 19 1 4 3 -2 6 -13 5 -11 0 -14 -3 -6 -6z"/>
<path d="M1900 370 c-19 -4 -28 -8 -19 -9 8 0 21 -7 27 -13 7 -7 18 -13 25
-14 23 -1 77 -26 77 -35 0 -5 13 -9 29 -9 16 0 31 -6 35 -15 3 -8 12 -15 21
-15 9 0 15 -9 15 -24 0 -24 16 -36 51 -36 10 0 19 -6 19 -12 1 -7 12 -26 25
-43 19 -23 25 -26 25 -12 0 9 -4 17 -8 17 -4 0 -16 15 -26 33 -28 47 -114 125
-147 132 -30 7 -38 20 -16 28 6 3 -2 6 -19 6 -19 1 -34 7 -38 16 -6 16 -20 17
-76 5z"/>
<path d="M1757 274 c3 -9 9 -12 12 -7 3 4 10 11 15 16 5 4 0 7 -12 7 -15 0
-20 -4 -15 -16z"/>
<path d="M1785 230 c3 -5 8 -10 11 -10 2 0 4 5 4 10 0 6 -5 10 -11 10 -5 0 -7
-4 -4 -10z"/>
<path d="M1805 211 c-3 -5 -1 -12 5 -16 5 -3 10 1 10 9 0 18 -6 21 -15 7z"/>
<path d="M1860 159 c0 -5 5 -7 10 -4 6 3 10 8 10 11 0 2 -4 4 -10 4 -5 0 -10
-5 -10 -11z"/>
</g>
</svg>
